<svg width="2527" height="1806" xmlns="http://www.w3.org/2000/svg" xmlns:xlink="http://www.w3.org/1999/xlink" xml:space="preserve" overflow="hidden"><defs><clipPath id="clip0"><rect x="583" y="116" width="2527" height="1806"/></clipPath></defs><g clip-path="url(#clip0)" transform="translate(-583 -116)"><path d="M3067.61 1589.92 1918 471" stroke="#4472C4" stroke-width="2.29167" stroke-miterlimit="8" fill="none" fill-rule="evenodd"/><path d="M2576.38 1592 1034 855" stroke="#4472C4" stroke-width="2.29167" stroke-miterlimit="8" fill="none" fill-rule="evenodd"/><path d="M0 0 365.629 710.163" stroke="#000000" stroke-width="2.29167" stroke-miterlimit="8" stroke-dasharray="9.16667 6.875" fill="none" fill-rule="evenodd" transform="matrix(1 0 0 -1 988 1023.16)"/><path d="M719.146 492.916 719.146 1564.46 716.855 1564.46 716.854 492.916ZM704.25 497.5 718 470 731.75 497.5ZM731.75 1559.88 718 1587.38 704.25 1559.88Z"/><path d="M860.146 493.917 860.146 832.298 857.855 832.298 857.854 493.917ZM845.25 498.5 859 471 872.75 498.5ZM872.75 827.714 859 855.214 845.25 827.714Z"/><path d="M628 470 1914.67 471.545" stroke="#000000" stroke-width="2.29167" stroke-miterlimit="8" fill="none" fill-rule="evenodd"/><path d="M781 855 1033.56 855" stroke="#000000" stroke-width="2.29167" stroke-miterlimit="8" fill="none" fill-rule="evenodd"/><path d="M3109.62 1589.48 669 1586" stroke="#000000" stroke-width="2.29167" stroke-miterlimit="8" fill="none" fill-rule="evenodd"/><path d="M1078.92 250.854 1889.93 250.854 1889.93 253.146 1078.92 253.146ZM1083.5 265.75 1056 252 1083.5 238.25ZM1885.34 238.25 1912.84 252 1885.34 265.75Z"/><path d="M0 0 0.000360892 599.637" stroke="#000000" stroke-width="2.29167" stroke-miterlimit="8" fill="none" fill-rule="evenodd" transform="matrix(1 0 0 -1 1060 824.637)"/><path d="M1066.91 526.74C1122.77 522.111 1178.46 542.695 1218.78 582.872" stroke="#000000" stroke-width="2.29167" stroke-miterlimit="8" fill="none" fill-rule="evenodd"/><path d="M1917.66 196.327C1979.97 195.937 2038.32 226.365 2073.54 277.612" stroke="#000000" stroke-width="2.29167" stroke-miterlimit="8" fill="none" fill-rule="evenodd"/><path d="M1923.56 1759.3 1913 117" stroke="#000000" stroke-width="2.29167" stroke-miterlimit="8" fill="none" fill-rule="evenodd"/><path d="M0 0 300.68 369.42" stroke="#000000" stroke-width="2.29167" stroke-miterlimit="8" stroke-dasharray="9.16667 6.875" fill="none" fill-rule="evenodd" transform="matrix(1 0 0 -1 1817 594.42)"/><path d="M2576 1418 2576 1588.43" stroke="#000000" stroke-width="2.29167" stroke-miterlimit="8" fill="none" fill-rule="evenodd"/><path d="M3063 1418 3063 1588.43" stroke="#000000" stroke-width="2.29167" stroke-miterlimit="8" fill="none" fill-rule="evenodd"/><path d="M2595.92 1451.93 3041.38 1453.33 3041.37 1455.62 2595.91 1454.22ZM2600.46 1466.84 2573 1453 2600.54 1439.34ZM3036.83 1440.71 3064.29 1454.54 3036.75 1468.21Z"/><rect x="1887.5" y="1418.5" width="72.9999" height="341" stroke="#7C7C7C" stroke-width="4.58333" stroke-miterlimit="8" fill="#7C7C7C"/><path d="M1112.25 703.524 1177.05 737.004 1020.6 1039.83 955.795 1006.35Z" stroke="#7C7C7C" stroke-width="4.58333" stroke-miterlimit="8" fill="#7C7C7C" fill-rule="evenodd"/><path d="M2001.55 306.19 2058.42 351.864 1844.98 617.62 1788.11 571.946Z" stroke="#7C7C7C" stroke-width="4.58333" stroke-miterlimit="8" fill="#7C7C7C" fill-rule="evenodd"/><path d="M0 0 0.000360892 278.113" stroke="#000000" stroke-width="2.29167" stroke-miterlimit="8" fill="none" fill-rule="evenodd" transform="matrix(1 0 0 -1 1489 1865.11)"/><path d="M0 0 0.000360892 255.146" stroke="#000000" stroke-width="2.29167" stroke-miterlimit="8" fill="none" fill-rule="evenodd" transform="matrix(1 0 0 -1 2819 1847.15)"/><path d="M1511.92 1813.85 2796.27 1813.85 2796.27 1816.15 1511.92 1816.15ZM1516.5 1828.75 1489 1815 1516.5 1801.25ZM2791.68 1801.25 2819.18 1815 2791.68 1828.75Z"/><text font-family="Arial,Arial_MSFontService,sans-serif" font-weight="400" font-size="50" transform="matrix(1 0 0 1 1447.52 244)">B<tspan font-size="50" x="669.331" y="1636">r</tspan><tspan font-size="50" x="289.016" y="930">r</tspan><tspan font-size="50" x="305.63" y="930">_l</tspan><tspan font-size="50" x="1040.29" y="760">r</tspan><tspan font-size="50" x="1056.9" y="760">_r</tspan><tspan font-size="50" x="-831.865" y="804">WB</tspan><tspan font-size="50" x="-574.879" y="459">dWB</tspan><tspan font-size="50" x="1364.3" y="1190">dr</tspan><tspan font-size="50" x="-223.727" y="390">Φ</tspan><tspan font-size="50" x="-183.623" y="390">_l</tspan><tspan font-size="50" x="532.396" y="-47">Φ</tspan><tspan font-size="50" x="572.5" y="-47">_r</tspan></text></g></svg>